<?xml version="1.0" encoding="UTF-8"?>
<svg width="200" height="200" viewBox="0 0 200 200" fill="none" xmlns="http://www.w3.org/2000/svg">
    <rect width="200" height="200" rx="20" fill="#F5F5F5"/>
    <path d="M100 60C88.9543 60 80 68.9543 80 80C80 91.0457 88.9543 100 100 100C111.046 100 120 91.0457 120 80C120 68.9543 111.046 60 100 60ZM100 90C94.4772 90 90 85.5228 90 80C90 74.4772 94.4772 70 100 70C105.523 70 110 74.4772 110 80C110 85.5228 105.523 90 100 90Z" fill="#CCCCCC"/>
    <path d="M100 110C80 110 60 120 60 140V150H140V140C140 120 120 110 100 110ZM130 140H70C70 130 90 120 100 120C110 120 130 130 130 140Z" fill="#CCCCCC"/>
    <path d="M160 90H140V100H160V120H170V100H190V90H170V70H160V90Z" fill="#FF4D00"/>
</svg>
